<?xml version="1.0" encoding="UTF-8"?>
<svg id="Boyandgirlgivinghigh-fivetoeachother" xmlns="http://www.w3.org/2000/svg" viewBox="0 0 1080 1080">
  <defs>
    <style>
      .cls-1 {
        opacity: .2;
      }

      .cls-1, .cls-2, .cls-3 {
        fill: #e4f065;
      }

      .cls-1, .cls-3, .cls-4 {
        isolation: isolate;
      }

      .cls-5 {
        fill: #5e2af4;
      }

      .cls-6, .cls-4 {
        fill: #7b51f4;
      }

      .cls-7 {
        fill: #1e0959;
      }

      .cls-8 {
        fill: #5727e2;
      }

      .cls-9 {
        fill: #d7df81;
      }

      .cls-10 {
        fill: none;
        stroke: #f0ff55;
        stroke-linecap: round;
        stroke-miterlimit: 10;
        stroke-width: 1.92px;
      }

      .cls-11 {
        fill: #200b5b;
      }

      .cls-12 {
        fill: #2e0e8c;
      }

      .cls-13 {
        fill: #b1f2f2;
      }

      .cls-14 {
        fill: #b8a5ef;
      }

      .cls-3, .cls-4 {
        opacity: .5;
      }

      .cls-15 {
        fill: #adffff;
      }

      .cls-16 {
        fill: #250b70;
      }

      .cls-17 {
        fill: azure;
      }

      .cls-18 {
        fill: #f2f2f2;
      }
    </style>
  </defs>
  <path class="cls-17" d="M890.52,972.47c33.14-17.95,66.4-37.15,91.99-64.83,25.58-27.68,42.78-65.43,37.5-102.74-4.86-34.31-27.63-63.9-33.68-98.03-10.38-58.56,29.72-113.54,39.08-172.27,7.04-44.17-4.33-90.98-30.84-127-24.16-32.84-59.73-56.39-81.55-90.84-29.39-46.42-30.91-108.06-66.81-149.65-26-30.13-65.48-44.28-103.22-56.91-66.88-22.38-135.14-43.96-205.61-46.52s-144.52,16.13-195.41,64.95c-15.82,15.18-29.3,33.33-36.12,54.16-16.13,49.26,6.96,101.53,21.44,151.3,2.83,9.74,5.35,20.01,3.22,29.92-2.11,9.76-8.5,18.01-15.24,25.38-31.39,34.36-73.17,57.04-113.48,80.29-40.31,23.25-81.05,48.68-108.22,86.46-27.17,37.78-37.84,91.05-14.22,131.16,9.16,15.56,23.14,28.95,26.85,46.62,6.56,31.23-20.66,57.94-36.67,85.55-26.58,45.84-21.67,107.91,11.78,149,33.45,41.1,93.23,58.49,143.51,41.77l665.7-37.77Z"/>
  <path class="cls-5" d="M162.67,966.59c5.01-90.26-61.84-212.01-130.38-218-25.07,52.52,18.18,191.47,82.02,216.9,63.84,25.43,48.36,1.1,48.36,1.1Z"/>
  <path class="cls-15" d="M123.09,945.57c-.33-6.78-1.63-13.95-3.2-21-1.59-7.08-3.51-14.15-5.59-21.18-4.16-14.07-8.98-28-14.18-41.78-5.22-13.78-10.84-27.43-16.99-40.84-3.09-6.7-6.32-13.33-9.82-19.83-1.78-3.23-3.58-6.45-5.57-9.56-1.98-3.1-4.04-6.19-6.66-8.82,2.77,2.47,5.03,5.45,7.2,8.45,2.18,3,4.18,6.13,6.16,9.27,3.9,6.31,7.53,12.78,11.03,19.32,6.97,13.09,13.42,26.46,19.48,40.01,6.05,13.56,11.73,27.3,16.8,41.33,2.53,7.02,4.91,14.11,7,21.35,2.06,7.27,3.9,14.61,4.77,22.58l-10.42,.69h0Z"/>
  <path class="cls-12" d="M195.37,948.33s-1.3,3.57-6.88,4.69c-1.13,.23-2.43,.36-3.94,.32-6.18-.09-15.76-2.74-30.46-11.39-35.93-21.16-36.61-107.28-16.7-136.45,40.54,9.93,69.36,89.15,57.99,142.82h0Z"/>
  <path class="cls-12" d="M188.49,953.02c-1.13,.23-2.43,.36-3.94,.32-.02-.24-.05-.47-.07-.71-1.32-12.04-3.29-24.04-5.69-35.95-2.39-11.92-5.23-23.76-8.62-35.44-1.7-5.84-3.55-11.65-5.68-17.34-.55-1.41-1.08-2.84-1.67-4.24l-.88-2.11-.94-2.07c-1.31-2.74-2.66-5.48-4.49-7.93,1.91,2.38,3.37,5.08,4.78,7.78l1.02,2.05,.95,2.08c.65,1.39,1.22,2.8,1.83,4.2,2.34,5.64,4.41,11.4,6.32,17.18,3.81,11.61,7.09,23.38,9.93,35.27,2.84,11.89,5.24,23.88,7.02,36.02l.13,.88Z"/>
  <path class="cls-6" d="M360.24,948.95s-1.14,3.13-6.03,4.11c-.99,.2-2.13,.31-3.45,.28-5.42-.08-13.82-2.4-26.7-9.98-31.49-18.55-32.08-94.03-14.64-119.59,35.54,8.71,60.79,78.14,50.83,125.18h0Z"/>
  <path class="cls-4" d="M354.2,953.06c-.99,.2-2.13,.31-3.45,.28-.02-.21-.05-.41-.06-.62-1.15-10.55-2.88-21.07-4.99-31.51-2.1-10.45-4.59-20.82-7.55-31.06-1.49-5.12-3.11-10.21-4.98-15.2-.49-1.24-.94-2.49-1.46-3.72l-.77-1.85-.82-1.81c-1.14-2.4-2.34-4.81-3.94-6.95,1.68,2.09,2.96,4.45,4.19,6.82l.9,1.79,.83,1.82c.57,1.22,1.07,2.45,1.6,3.68,2.05,4.94,3.86,9.99,5.54,15.06,3.34,10.17,6.22,20.49,8.71,30.91,2.49,10.42,4.6,20.93,6.15,31.57l.11,.77h0Z"/>
  <path class="cls-12" d="M915.32,966.59c-5.01-90.26,61.84-212.01,130.38-218,25.07,52.52-18.18,191.47-82.02,216.9-63.84,25.43-48.36,1.1-48.36,1.1Z"/>
  <path class="cls-12" d="M954.91,945.57c.33-6.78,1.63-13.95,3.2-21,1.59-7.08,3.51-14.15,5.59-21.18,4.16-14.07,8.98-28,14.18-41.78,5.22-13.78,10.84-27.43,16.99-40.84,3.09-6.7,6.32-13.33,9.82-19.83,1.78-3.23,3.58-6.45,5.57-9.56,1.98-3.1,4.04-6.19,6.66-8.82-2.77,2.47-5.03,5.45-7.2,8.45-2.18,3-4.18,6.13-6.16,9.27-3.9,6.31-7.53,12.78-11.03,19.32-6.97,13.09-13.42,26.46-19.48,40.01-6.05,13.56-11.73,27.3-16.8,41.33-2.53,7.02-4.91,14.11-7,21.35-2.06,7.27-3.9,14.61-4.77,22.58l10.42,.69h0Zm-172.57,24.4c3.4-61.29-41.99-143.96-88.53-148.02-17.02,35.66,12.35,130.01,55.69,147.28,43.35,17.27,32.84,.75,32.84,.75h0Z"/>
  <path class="cls-12" d="M755.46,955.68c-.22-4.6-1.11-9.47-2.17-14.26-1.08-4.81-2.38-9.61-3.79-14.38-2.83-9.55-6.1-19.01-9.63-28.37-3.54-9.36-7.36-18.63-11.54-27.73-2.1-4.55-4.29-9.05-6.67-13.46-1.21-2.19-2.43-4.38-3.78-6.49-1.34-2.11-2.75-4.2-4.52-5.99,1.88,1.68,3.42,3.7,4.89,5.74,1.48,2.04,2.84,4.16,4.18,6.29,2.65,4.29,5.11,8.68,7.49,13.12,4.73,8.89,9.11,17.97,13.23,27.17,4.11,9.21,7.96,18.54,11.4,28.07,1.72,4.77,3.34,9.58,4.75,14.5,1.4,4.93,2.65,9.92,3.24,15.33l-7.08,.47Z"/>
  <path class="cls-6" d="M762.91,949.72c1.53-29.5,27.52-66.72,49.99-66.26,6.31,17.94-12.61,61.57-34.24,67.59-21.63,6.02-15.75-1.34-15.75-1.34Z"/>
  <path class="cls-8" d="M776.5,944.27c.34-2.19,1.02-4.47,1.78-6.71,.76-2.25,1.64-4.47,2.56-6.68,1.84-4.42,3.9-8.78,6.07-13.08,2.18-4.3,4.48-8.53,6.95-12.67,1.24-2.07,2.52-4.11,3.89-6.1,.69-.99,1.39-1.97,2.14-2.91,.75-.94,1.53-1.87,2.47-2.63-.99,.71-1.83,1.6-2.63,2.49-.81,.9-1.57,1.84-2.32,2.8-1.48,1.92-2.9,3.88-4.26,5.89-2.72,4.02-5.3,8.12-7.73,12.32-2.44,4.19-4.77,8.46-6.9,12.84-1.07,2.19-2.09,4.41-3.02,6.69-.92,2.29-1.78,4.61-2.34,7.17l3.36,.59h0Z"/>
  <path class="cls-12" d="M337.18,949.72c1.53-29.5,27.52-66.72,49.99-66.26,6.31,17.94-12.61,61.57-34.24,67.59-21.63,6.02-15.75-1.34-15.75-1.34Z"/>
  <path class="cls-12" d="M350.78,944.27c.34-2.19,1.02-4.47,1.78-6.71,.76-2.25,1.64-4.47,2.56-6.68,1.84-4.42,3.9-8.78,6.07-13.08,2.18-4.3,4.48-8.53,6.95-12.67,1.24-2.07,2.52-4.11,3.89-6.1,.69-.99,1.39-1.97,2.14-2.91,.75-.94,1.53-1.87,2.47-2.63-.99,.71-1.83,1.6-2.63,2.49-.81,.9-1.57,1.84-2.32,2.8-1.48,1.92-2.9,3.88-4.26,5.89-2.72,4.02-5.3,8.12-7.73,12.32-2.44,4.19-4.77,8.46-6.9,12.84-1.07,2.19-2.09,4.41-3.02,6.69-.92,2.29-1.78,4.61-2.34,7.17l3.36,.59h0Z"/>
  <path class="cls-5" d="M882.63,948.33s1.3,3.57,6.88,4.69c1.13,.23,2.43,.36,3.94,.32,6.18-.09,15.76-2.74,30.46-11.39,35.93-21.16,36.61-107.28,16.7-136.45-40.54,9.93-69.36,89.15-57.99,142.82h0Z"/>
  <path class="cls-5" d="M889.51,953.02c1.13,.23,2.43,.36,3.94,.32,.02-.24,.05-.47,.07-.71,1.32-12.04,3.29-24.04,5.69-35.95,2.39-11.92,5.23-23.76,8.62-35.44,1.7-5.84,3.55-11.65,5.68-17.34,.55-1.41,1.08-2.84,1.67-4.24l.88-2.11,.94-2.07c1.31-2.74,2.66-5.48,4.49-7.93-1.91,2.38-3.37,5.08-4.78,7.78l-1.02,2.05-.95,2.08c-.65,1.39-1.22,2.8-1.83,4.2-2.34,5.64-4.41,11.4-6.32,17.18-3.81,11.61-7.09,23.38-9.93,35.27s-5.24,23.88-7.02,36.02l-.13,.88h0Z"/>
  <ellipse class="cls-18" cx="540" cy="995.27" rx="500.37" ry="21.21"/>
  <path class="cls-9" d="M450.93,311.49l127.69-82.88,13.61-39.33-.84,43.87-108.04,94.02-32.43-15.68Z"/>
  <path class="cls-2" d="M402.33,340.64l80.85-50.1,16.35,59.97-91.31,59.97-5.89-69.83Z"/>
  <path class="cls-1" d="M402.33,340.64l80.85-50.1,16.35,59.97-91.31,59.97-5.89-69.83Z"/>
  <path class="cls-2" d="M237.69,714.61l-33.95,67.79-4.8-66.75,16.02-7.45-17.55-2.65,.06-9.52,40.07-.89,.16,19.47Z"/>
  <path class="cls-7" d="M367,503.3s38.83,147.16,27.59,166.58c-11.24,19.42-159.05,51.38-159.05,51.38l-.37-28.9s103.31-47.87,115.57-44.8c-24.53-22.48-48.8-137.11-48.8-137.11l65.06-7.15Z"/>
  <path class="cls-2" d="M213.64,834.54l29.1,70.01-53.64-40.01,4.84-16.99-13.48,11.55-7.16-6.27,25.53-30.9,14.83,12.61Z"/>
  <path class="cls-16" d="M359.68,504.62s-86.22,204.54-137.82,342.93c-31.68,0-27.78-30.8-27.78-30.8,0,0,62.55-290.15,98.16-332.93,54.78,3.73,67.44,20.8,67.44,20.8Z"/>
  <path class="cls-9" d="M301.94,410.48l-104.24,96.39-56.26,10.13,55.82,3.69,110.92-74.74-6.24-35.47Z"/>
  <ellipse class="cls-16" cx="395.82" cy="271.17" rx="43.01" ry="45.42"/>
  <path class="cls-9" d="M436.44,240.8s11.53,71.96-1.85,86.37c-40.59-2.77-50.73-18.11-60.88-39.32-10.15-21.22,12.91-64.57,62.73-47.04h0Z"/>
  <path class="cls-16" d="M446.6,240.74c-2.07,15.77-63.22,56.01-76.62,48.98-1.92-28.73,14.11-80.99,76.62-48.98Z"/>
  <path class="cls-9" d="M379.91,291.28c-5.11-5.21-10.04-5.82-10.86,.86-.74,6.04,7.18,14.92,12.93,13.52,5.75-1.4-2.08-14.39-2.08-14.39Z"/>
  <path class="cls-16" d="M382.02,233.03c-13.89-19.11-38.23-30.08-61.75-27.82-7.97,.77-16.02,3.06-22.22,8.13-6.2,5.06-10.21,13.25-8.81,21.13,2.32,12.96,17.9,21.98,16.43,35.06-.65,5.73-4.7,10.64-9.58,13.73s-10.53,4.66-16.1,6.19c-12.5,3.43-25.4,7.05-35.5,15.18s-16.72,22.06-12.4,34.29c2.8,7.95,9.92,15.15,8.2,23.4-1.77,8.5-11.86,12.4-16.22,19.92-4.27,7.36-2.04,17.25,3.62,23.6s14.05,9.64,22.42,11.19c13.49,2.5,29.79-.35,36.47-12.33,4.65-8.34,3.27-18.81-.1-27.75s-8.55-17.15-11.46-26.25c-2.91-9.1-3.17-19.86,2.7-27.4,6.16-7.91,16.99-10.03,26.78-12.2,9.79-2.18,20.63-5.93,24.7-15.09,3.68-8.28,.74-19.03,6.45-26.06,5.14-6.33,14.53-6.4,22.27-8.95,10.66-3.51,19.16-12.91,21.59-23.86l2.5-4.11h0Z"/>
  <path class="cls-9" d="M408.22,314.67l-2,24.21,16.41,39.53-38.54-38.45-2.07-37.09,26.19,11.8Z"/>
  <path class="cls-2" d="M430.03,424.04l-27.71,28.24-25.77,68.41-74.18-26.3-25.1-8.91,24.67-21.58s-25.51-26.58-30.49-46.04c46.5-39.39,82.19-71.02,112.63-77.89h8.12l30.43,38.44,7.4,45.63h0Z"/>
  <path class="cls-3" d="M350.74,420.87l-48.38,73.52-25.1-8.91,24.67-21.58,48.8-43.03Z"/>
  <path class="cls-2" d="M887.47,714.67l54.16,71.54-20.11-111.98-41.75,7.78,7.7,32.65Z"/>
  <path class="cls-13" d="M756.59,531.33c-15.98,47.55-35.15,114.99-10.61,153.31,24.54,38.32,146.04,32.31,146.04,32.31l-4.8-35.36s-84.18-17.18-80.52-28.12c3.66-10.95,24.76-89.94,21.57-100.57-3.19-10.63-7.56-42.64-7.56-42.64l-64.12,21.07h0Z"/>
  <path class="cls-2" d="M905.86,854.07l-63.02,63.88,107.93-35.99-13.7-40.2-31.21,12.31Z"/>
  <path class="cls-15" d="M762.63,522.35c.85,16.94,137.31,334.14,137.31,334.14l40.02-9.6s-72.46-291.29-79.88-329.45c-7.42-38.15-97.45,4.9-97.45,4.9h0Z"/>
  <path class="cls-14" d="M912.72,423.22l11.36,14.2,27.39,95.49,7.41,40.25-19.63-5.69-3.98-25.91-5.1,10.22-5.6,1.04,6.94-21.98-31.48-78.23-19.89-13.32,32.59-16.07Zm-172.54-118.38l-131.7-76.35-16.24-39.21-.84,43.87,117.19,88.99,31.6-17.29Z"/>
  <path class="cls-11" d="M786.21,329.95l-62.43-45.26-32.97,35.58,74.85,64.83,20.55-55.15Z"/>
  <path class="cls-16" d="M786.21,329.95c-2.5,2.23-26.58,20.56-37.66,41.48-11.09,20.92,.78,168.57,.78,168.57l128.96-6.49-25.74-109.08,25.7,27.75,44.69-37.55s-47.54-64.88-57.63-71.63c-18.91-12.65-79.09-13.05-79.09-13.05h0Zm3.26-102.73c10.31,.76,61.02,8.87,19.06,70.25-8.81,16.17-19.06-70.25-19.06-70.25Z"/>
  <path class="cls-14" d="M745.4,241.63s-6.43,64.55,7.66,78.27c10.1-1.2,25.75-1.53,32.45-4.03,20.1-7.5,17.08-21.45,24.91-30.96,14.95-18.15-16.16-63.28-65.02-43.28h0Z"/>
  <path class="cls-14" d="M783,305.88l2.11,25-4.33,14.29c-1.95,5.46,5.03,9.65,8.93,5.35l21.29-19.44-1.61-46.11-26.37,20.91h0Z"/>
  <path class="cls-16" d="M768.14,259.5c-4.88-.26-9.68,.87-14.47,1.8s-10.13,1.21-14.2-1.5c-5.58-3.72-6.64-11.45-10.77-16.72-2.94-3.75-7.3-6.07-10.95-9.14-.54-.45-1.08-.94-1.35-1.59-.61-1.46,.35-3.08,1.35-4.31,3.59-4.35,8.48-7.69,13.96-9.05s11.51-.64,16.32,2.3c4.39,2.68,7.82,7.14,12.81,8.4,7.52,1.9,14.59-4.22,22.23-5.62,2.66-.49,5.4-.39,8.03,.28,1.66,.43,3.29,1.1,4.62,2.18,3.66,2.97,4.49,8.41,8.01,11.54,3.67,3.27,9.42,3.3,13.05,6.61,2.54,2.3,3.58,5.78,4.49,9.08,1.13,4.13,2.13,8.85-.19,12.45-1.01,1.57-3.59,15.54-5.19,16.52-9.17,5.6-18.73-5.51-27.47-9.84-3.16-1.57-5.7-4.11-7.67-7.03-1.64-2.43-5.27-5.96-12.6-6.36h0Z"/>
  <path class="cls-16" d="M799.37,265.59l.24,23.37,4.66-.23,7.57-23.76-12.47,.63Z"/>
  <path class="cls-14" d="M805.76,268.52c9.15-6.95,12.07-4.48,11.3,5.94-.77,10.42-12.8,14.27-12.8,14.27l1.5-20.21Z"/>
  <ellipse class="cls-2" cx="764.01" cy="413.8" rx="13.29" ry="28.61" transform="translate(-19.85 38.95) rotate(-2.88)"/>
  <path class="cls-10" d="M576.24,198.47l-21.24-22.25m50.14,22.25l21.24-22.25m-12.01-11.8l1.39-1.46m-10.62,11.13l6.79-7.11m-28.26,7.11l-6.79-7.11"/>
  <path class="cls-2" d="M558.91,144.09c-20.62,0-37.33,16.71-37.33,37.34,0-20.62-16.71-37.34-37.34-37.34,20.62,0,37.34-16.71,37.34-37.34,0,20.62,16.7,37.34,37.33,37.34Zm82.86,152.44c-10.33,0-18.7,8.37-18.7,18.7,0-10.33-8.37-18.7-18.7-18.7,10.33,0,18.7-8.37,18.7-18.7,0,10.33,8.37,18.7,18.7,18.7Z"/>
</svg>