<?xml version="1.0" encoding="UTF-8"?>
<svg id="Securityerror" xmlns="http://www.w3.org/2000/svg" viewBox="0 0 1080 1080">
  <defs>
    <style>
      .cls-1 {
        fill: #e4f065;
      }

      .cls-2 {
        stroke-width: 7.37px;
      }

      .cls-2, .cls-3 {
        fill: none;
        stroke: #c2b9db;
        stroke-miterlimit: 10;
      }

      .cls-4 {
        fill: #b8a5ef;
      }

      .cls-5 {
        fill: #dcee1d;
      }

      .cls-6 {
        fill: #5e40b5;
      }

      .cls-7 {
        fill: #adffff;
      }

      .cls-3 {
        stroke-width: 3.84px;
      }
    </style>
  </defs>
  <circle class="cls-7" cx="864.23" cy="196.53" r="152.99"/>
  <path class="cls-7" d="M1054.48,446.45v-48.27c0-19.17-11.09-34.71-24.77-34.71h-68.49c-13.68,0-24.77-15.54-24.77-34.71h0v-48.27c0-19.17,30.03-34.71,43.71-34.71h2.76c13.68,0,24.77-15.54,24.77-34.71h0v-48.27c0-19.17-11.09-34.71-24.77-34.71H146.07c-13.68,0-24.77,15.54-24.77,34.71h0v48.27c0,19.17,11.09,34.71,24.77,34.71h0c13.68,0,24.77,15.54,24.77,34.71v48.27c0,19.17-11.09,34.71-24.77,34.71H50.29c-13.68,0-24.77,15.54-24.77,34.71h0v48.27c0,19.17,11.09,34.71,24.77,34.71h37.58c13.68,0,24.77,15.54,24.77,34.71h0v48.27c0,19.17-11.09,34.71-24.77,34.71h-.09c-13.68,0-24.77,15.54-24.77,34.71v48.27c0,19.17,11.09,34.71,24.77,34.71h5.44c13.68,0,24.77,15.54,24.77,34.71v48.27c0,19.17-11.09,34.71-24.77,34.71H60.79c-13.68,0-24.77,15.54-24.77,34.71v48.27c0,19.17,11.09,34.71,24.77,34.71H977.28c13.68,0,24.77-15.54,24.77-34.71h0v-48.27c0-19.17-11.09-34.71-24.77-34.71h-21.48c-13.68,0-24.77-15.54-24.77-34.71h0v-48.27c0-19.17,11.09-34.71,24.77-34.71h50.64c13.68,0,24.77-15.54,24.77-34.71v-48.27c0-19.17-11.09-34.71-24.77-34.71h-15.36c-13.68,0-24.77-15.54-24.77-34.71h0v-48.27c0-19.17,11.09-34.71,24.77-34.71h38.63c13.68,0,24.77-15.54,24.77-34.71Z"/>
  <path class="cls-6" d="M888.16,322.06c-125.2-2.12-250.02-37.84-363.24-104.54-113.11,66.7-237.93,102.42-363.16,104.54-25.52,272.44,56.93,600.26,363.16,722.05,306.33-121.79,388.47-449.62,363.24-722.05h0Z"/>
  <path class="cls-7" d="M802.86,394.56c-95.8-1.62-191.31-28.96-277.94-79.99-86.55,51.03-182.06,78.37-277.88,79.99-19.53,208.46,43.56,459.3,277.88,552.5,234.4-93.19,297.25-344.03,277.94-552.5Z"/>
  <circle class="cls-5" cx="868" cy="191.44" r="93.67" transform="translate(118.86 669.84) rotate(-45)"/>
  <path class="cls-1" d="M870.71,228.13h-49.26c-2.99,0-5.42-2.43-5.42-5.42,0-.95,.25-1.88,.73-2.71l24.63-42.66,24.63-42.66c1.5-2.59,4.81-3.48,7.4-1.98,.82,.48,1.51,1.16,1.98,1.98l24.63,42.66,24.63,42.66c1.5,2.59,.61,5.9-1.98,7.4-.82,.48-1.76,.73-2.71,.73h-49.26Z"/>
  <path class="cls-6" d="M870.71,154.88h0c1.5,0,2.71,1.21,2.71,2.71v40.39c0,1.5-1.21,2.71-2.71,2.71h0c-1.5,0-2.71-1.21-2.71-2.71v-40.39c0-1.5,1.21-2.71,2.71-2.71Z"/>
  <circle class="cls-6" cx="870.71" cy="213.65" r="6.48" transform="translate(572.31 1059.07) rotate(-84.35)"/>
  <path class="cls-5" d="M478.55,588.54v-63.13c0-26.47,21.46-47.92,47.93-47.92,.15,0,.3,0,.44,0h5.26c26.46-.26,48.11,20.98,48.37,47.44,0,.16,0,.32,0,.48v21.27c.02,2.97,2.41,5.37,5.38,5.41l25.47,.12c2.99,.01,5.43-2.4,5.44-5.4h0v-17.88c.01-46.04-37.3-83.37-83.34-83.38-.05,0-.09,0-.14,0h-7.63c-46.05-.04-83.41,37.25-83.45,83.3v61.38l36.26-1.69Z"/>
  <path class="cls-1" d="M628.9,770.08c13.27-.03,24.03-10.79,24.06-24.06v-136.83c-.03-13.27-10.79-24.03-24.06-24.06h-198.66c-13.27,.03-24.03,10.79-24.06,24.06v136.83c.03,13.27,10.79,24.03,24.06,24.06h198.66Z"/>
  <path class="cls-5" d="M529.57,632.07c-14.22,.05-25.73,11.56-25.78,25.78,.24,7.86,4.11,15.16,10.48,19.78v30.25c0,8.45,6.85,15.3,15.3,15.3s15.3-6.85,15.3-15.3v-30.25c6.36-4.62,10.23-11.92,10.48-19.78-.04-14.22-11.56-25.73-25.78-25.78Z"/>
  <line class="cls-2" x1="39.76" y1="558.88" x2="114.26" y2="558.88"/>
  <line class="cls-2" x1="39.76" y1="580.35" x2="114.26" y2="580.35"/>
  <line class="cls-2" x1="39.76" y1="601.82" x2="114.26" y2="601.82"/>
  <line class="cls-3" x1="950.07" y1="79.35" x2="988.9" y2="79.35"/>
  <line class="cls-3" x1="950.07" y1="90.54" x2="988.9" y2="90.54"/>
  <line class="cls-3" x1="950.07" y1="101.73" x2="988.9" y2="101.73"/>
  <line class="cls-2" x1="943.83" y1="640.3" x2="1018.33" y2="640.3"/>
  <line class="cls-2" x1="943.83" y1="661.77" x2="1018.33" y2="661.77"/>
  <line class="cls-2" x1="943.83" y1="683.25" x2="1018.33" y2="683.25"/>
  <circle class="cls-4" cx="294.33" cy="207.93" r="37.89"/>
  <circle class="cls-4" cx="303.82" cy="131.25" r="19.74"/>
  <circle class="cls-4" cx="373.28" cy="133.36" r="11.38"/>
  <circle class="cls-4" cx="380.04" cy="196.53" r="27.29"/>
  <circle class="cls-4" cx="837.94" cy="961.39" r="37.89"/>
  <circle class="cls-4" cx="784.96" cy="905.16" r="19.74"/>
  <circle class="cls-4" cx="830.9" cy="853.02" r="11.38"/>
  <circle class="cls-4" cx="883.85" cy="888.13" r="27.29"/>
  <circle class="cls-4" cx="110.32" cy="901.76" r="37.89"/>
  <circle class="cls-4" cx="57.34" cy="845.53" r="19.74"/>
  <circle class="cls-4" cx="103.28" cy="793.39" r="11.38"/>
  <circle class="cls-4" cx="156.23" cy="828.5" r="27.29"/>
</svg>