<?xml version="1.0" encoding="UTF-8"?>
<svg id="Websitemaintenance" xmlns="http://www.w3.org/2000/svg" viewBox="0 0 1080 1080">
  <defs>
    <style>
      .cls-1, .cls-2 {
        fill: #5e2af4;
      }

      .cls-3 {
        fill: #161616;
        opacity: .32;
      }

      .cls-3, .cls-4, .cls-2 {
        isolation: isolate;
      }

      .cls-5 {
        fill: #f6fcb1;
      }

      .cls-6, .cls-4 {
        fill: #e4f065;
      }

      .cls-4 {
        opacity: .19;
      }

      .cls-2, .cls-7 {
        opacity: .1;
      }

      .cls-8 {
        fill: #2e0e8c;
      }

      .cls-9 {
        fill: #b8a5ef;
      }

      .cls-10 {
        fill: #adffff;
      }

      .cls-11 {
        fill: #250b70;
      }

      .cls-12 {
        fill: #d8caff;
      }

      .cls-13 {
        fill: #f7f7f7;
      }
    </style>
  </defs>
  <g class="cls-7">
    <path class="cls-1" d="M103.79,696.43c-.61-3.21-1.56-6.33-2.86-9.28-.78-1.82-.52-3.9,.78-5.46l5.29-6.5-7.98-9.71-7.37,3.9c-1.73,.95-3.9,.78-5.55-.35-2.69-1.82-5.55-3.38-8.58-4.6-1.82-.69-3.12-2.43-3.3-4.42l-.78-8.32-12.49-1.21-2.43,8.06c-.61,1.91-2.17,3.3-4.16,3.64-3.21,.61-6.33,1.56-9.28,2.86-1.82,.78-3.9,.52-5.46-.78l-6.5-5.29-9.71,7.98,3.9,7.37c.95,1.73,.78,3.9-.35,5.55-1.82,2.69-3.38,5.55-4.6,8.58-.69,1.82-2.43,3.12-4.42,3.3l-8.32,.78-1.21,12.49,8.06,2.43c1.91,.61,3.3,2.17,3.64,4.16,.61,3.21,1.56,6.33,2.86,9.28,.78,1.82,.52,3.99-.78,5.46l-5.29,6.5,7.98,9.71,7.37-3.9c1.73-.95,3.9-.78,5.55,.35,2.69,1.82,5.55,3.38,8.58,4.6,1.82,.69,3.12,2.43,3.3,4.42l.78,8.32,12.49,1.21,2.43-8.06c.61-1.91,2.17-3.3,4.16-3.64,3.21-.61,6.33-1.56,9.28-2.86,1.82-.78,3.9-.52,5.46,.78l6.5,5.29,9.71-7.98-3.9-7.37c-.95-1.73-.78-3.9,.35-5.55,1.82-2.69,3.38-5.55,4.6-8.58,.69-1.82,2.43-3.12,4.42-3.3l8.32-.78,1.21-12.49-8.06-2.43c-1.82-.61-3.3-2.25-3.64-4.16Zm-44.92,39.37c-17.52-1.73-30.35-17.34-28.62-34.86s17.34-30.35,34.86-28.62c17.52,1.73,30.35,17.34,28.62,34.86s-17.34,30.26-34.86,28.62Z"/>
    <path class="cls-1" d="M40.84,701.89c1.13-11.71,11.53-20.2,23.24-19.08s20.2,11.53,19.08,23.24-11.53,20.2-23.24,19.08-20.2-11.53-19.08-23.24Z"/>
  </g>
  <ellipse class="cls-2" cx="540" cy="976" rx="513.92" ry="41.57"/>
  <path class="cls-4" d="M373.03,846.27c0,7.37,5.98,13.35,13.35,13.35h479.78c7.37,0,13.35-5.98,13.35-13.35V433.17H373.12v413.1h-.09Z"/>
  <path class="cls-6" d="M523.74,675.71c2.25,7.8,5.38,15.35,9.36,22.55,2.43,4.34,2.25,9.71-.52,13.87l-11.62,17.43,22.29,22.29,17.43-11.62c4.16-2.77,9.54-2.95,13.87-.52,7.11,3.99,14.65,7.11,22.55,9.36,4.77,1.39,8.41,5.29,9.45,10.23l4.08,20.55h31.48l4.16-20.64c.95-4.86,4.6-8.84,9.45-10.23,7.8-2.25,15.35-5.38,22.55-9.36,4.34-2.43,9.71-2.25,13.87,.52l17.43,11.62,22.29-22.29-11.62-17.43c-2.77-4.16-2.95-9.54-.52-13.87,3.99-7.11,7.11-14.65,9.37-22.55,1.39-4.77,5.29-8.41,10.23-9.45l20.55-4.08v-31.48l-20.64-4.16c-4.86-.95-8.84-4.6-10.23-9.45-2.25-7.8-5.38-15.35-9.37-22.55-2.43-4.34-2.25-9.71,.52-13.87l11.62-17.43-22.29-22.29-17.43,11.62c-4.16,2.77-9.54,2.95-13.87,.52-7.11-3.99-14.65-7.11-22.55-9.36-4.77-1.39-8.41-5.29-9.45-10.23l-4.08-20.55h-31.48l-4.16,20.64c-.95,4.86-4.6,8.84-9.45,10.23-7.8,2.25-15.35,5.38-22.55,9.36-4.34,2.43-9.71,2.25-13.87-.52l-17.43-11.62-22.29,22.29,11.62,17.43c2.77,4.16,2.95,9.54,.52,13.87-3.99,7.11-7.11,14.65-9.36,22.55-1.39,4.77-5.29,8.41-10.23,9.45l-20.55,4.08v31.48l20.64,4.16c4.94,.95,8.93,4.6,10.23,9.45h0Zm102.49-109.34c44.14,0,79.95,35.81,79.95,79.95s-35.81,79.95-79.95,79.95-79.95-35.81-79.95-79.95,35.81-79.86,79.95-79.95Zm-253.2-199.87v39.97h506.4v-39.97c0-7.37-5.98-13.35-13.35-13.35H386.3c-7.37,0-13.27,5.98-13.27,13.35Zm133.28,0h26.62v26.71h-26.62v-26.71Zm-53.33,0h26.62v26.71h-26.62v-26.71Zm-53.33,0h26.62v26.71h-26.62v-26.71Z"/>
  <path class="cls-6" d="M679.56,646.4c0,29.4-23.85,53.33-53.33,53.33s-53.33-23.85-53.33-53.33,23.85-53.33,53.33-53.33,53.33,23.85,53.33,53.33Zm-39.97-519.76c0-7.37-5.98-13.35-13.35-13.35H146.45c-7.37,0-13.35,5.98-13.35,13.35v39.97h506.4v-39.97h.09Zm-453.16,26.62h-26.62v-26.62h26.62v26.62Zm53.33,0h-26.62v-26.62h26.62v26.62Zm53.33,0h-26.62v-26.62h26.62v26.62Z"/>
  <path class="cls-4" d="M346.33,366.49c0-22.11,17.86-39.97,39.97-39.97h253.2V193.24H133.1v413.1c0,7.37,5.98,13.35,13.35,13.35h199.87v-253.2Zm106.66-106.57h26.62v26.62h-26.62v-26.62h0Zm-53.33,0h26.62v26.62h-26.62v-26.62h0Zm-53.33,0h26.62v26.62h-26.62v-26.62h0Zm-53.24,319.8h-106.66v-26.62h106.66v26.62Zm0-53.33h-106.66v-26.62h106.66v26.62Zm0-53.24h-106.66v-26.62h106.66v26.62Zm0-53.33h-106.66v-26.62h106.66v26.62h0Zm0-53.33h-106.66v-26.62h106.66v26.62Zm0-79.95v-26.62h26.62v26.62h-26.62Z"/>
  <path class="cls-5" d="M450.64,741l.52-14.05,9.97,3.03,1.91,17.52s-9.54,.61-12.4-6.5Z"/>
  <path class="cls-8" d="M451.51,741.09c2.34,.95,6.24,1.82,11.1,.69l-.61-3.99s2.77,1.65,3.47,5.29c.69,3.56,.87,2.6,5.38,5.38,4.6,2.77,4.25,9.02,4.25,9.02l-33.99-.87s-.95-6.85,5.2-14.13c1.21-1.56,3.38-2.17,5.2-1.39h0Z"/>
  <path class="cls-6" d="M396.62,534.54s-4.42,17.26,1.82,28.09c6.24,10.84,17.52-13.18,17.52-13.18,0,0-1.99-23.07-19.34-14.91Z"/>
  <path class="cls-12" d="M393.5,452.68s-22.89,31.13-26.71,49.95c-3.9,18.82,.26,59.92,.26,59.92h9.36s4.94-52.46,8.06-59.92c3.12-7.63,23.41-42.84,23.41-42.84l-14.39-7.11h0Z"/>
  <path class="cls-9" d="M389.6,755.91h86.89v9.97h-86.89v-9.97Zm-18.56,68.85h93.39v9.97h-93.39v-9.97Zm-8.41,66.6h93.39v9.97h-93.39v-9.97Z"/>
  <path class="cls-9" d="M353.26,957.61h-10.41l76.65-360.55h5.81l-72.06,360.55Zm108.65,0h-10.41l60.79-370.7,5.12,2.43-55.5,368.27Z"/>
  <path class="cls-13" d="M440.84,957.61l55.93-359.94-77.26-.61-76.65,360.55h-11.97l77.87-370.7h103.54l-57.49,370.7h-15.7"/>
  <path class="cls-5" d="M405.73,741l.52-14.05,9.97,3.03,1.91,17.52c-.09,0-9.54,.61-12.4-6.5Z"/>
  <path class="cls-12" d="M504.14,424.07s24.71-1.82,27.66-13.27c2.95-11.45,2.43-42.32,2.43-42.32h8.58s5.9,28.7,5.55,42.32c-.35,13.61-16.91,36.85-44.22,35.38-27.23-1.47,0-22.11,0-22.11h0Z"/>
  <path class="cls-1" d="M424.11,422.59s-14.31,1.47-20.2,7.72c-2.86,3.03-20.64,25.06-19.94,29.83l20.9,13.01,17.08-23.67,2.17-26.88Z"/>
  <path class="cls-11" d="M401.74,528.64s-6.16,18.21-.35,38.15,5.81,60.18,5.29,70.67-10.32,40.84-1.99,94.43h12.83s7.8-56.19,12.31-80.12c4.25-22.46,9.63-78.48,9.63-78.48,0,0,16.13,53.15,13.44,66.86-2.95,15.09-3.3,91.66-3.3,91.66h12.92s14.48-65.9,15.35-83.59c.95-17.69-1.04-116.89-1.04-116.89,0,0-43.01-29.22-75.09-2.69Z"/>
  <path class="cls-5" d="M445.79,387.99l-13.09,40.06,23.67,4.68,5.2-41.54-15.78-3.21Z"/>
  <path class="cls-1" d="M459.23,420.34s16.04,3.3,17.69,24.28c1.65,20.98,3.9,110.47,3.9,118.19-.52,3.56-62.87,15.43-81.42-2.6-4.68-4.6,10.67-82.46,8.5-102.93-2.25-20.38,9.89-46.3,51.33-36.94h0Z"/>
  <path class="cls-1" d="M477.87,462.31s6.42-14.65,26.27-16.13c0,0,4.77-13.61,0-22.11,0,0-35.99-7.37-49.69-4.6-13.7,2.77,23.41,42.84,23.41,42.84Z"/>
  <path class="cls-12" d="M542.73,376.2s2.69-14.39-2.08-22.55c-2.86-4.86-5.98-7.11-9.1-6.24-2.08,.61-2.95,4.25-2.43,6.33,.69,2.69,2.95,10.06,4.16,12.14,0,0-2.17,0-4.42-4.86-2.17-4.77-3.82,2.25-2.08,5.55,2.6,4.77,11.19,17.86,15.96,9.63h0Z"/>
  <path class="cls-8" d="M406.51,741.09c2.34,.95,6.24,1.82,11.1,.69l-.61-3.99s2.77,1.65,3.47,5.29c.69,3.56,.87,2.6,5.38,5.38,4.6,2.77,4.25,9.02,4.25,9.02l-33.99-.87s-.95-6.85,5.2-14.13c1.3-1.56,3.38-2.17,5.2-1.39h0Z"/>
  <path class="cls-11" d="M479.34,382.01c-.61-5.03,10.32-8.41-10.58-23.15-10.67-7.46-29.22-4.16-34.95,7.11-5.72,11.27-2.69,12.4-7.11,13.18-4.42,.87,.26,35.73,26.97,35.29,26.79-.43,25.67-32.43,25.67-32.43h0Z"/>
  <path class="cls-6" d="M398.09,522.4h81.34c3.3,0,5.98,2.43,6.33,5.64,1.39,12.23,2.86,39.97-11.45,41.97-18.38,2.6-24.28-17.26-24.28-35.73l-53.42,.26s-1.82-8.84,1.47-12.14Z"/>
  <path class="cls-12" d="M375.81,557.69s-1.56,18.47,4.42,23.5c5.98,5.12-10.58,7.37-14.65-1.99s1.47-21.5,1.47-21.5h8.76Z"/>
  <path class="cls-12" d="M374.25,560.12s5.55,.95,7.63,6.94c1.21,3.38,1.91,7.02,2.25,9.54,.26,1.65-1.65,2.77-3.03,1.73s-2.69-2.6-2.51-5.29c.43-5.64-6.33-3.99-6.33-3.99,0,0-2.25-6.68,1.99-8.93h0Z"/>
  <path class="cls-13" d="M465.04,535.14h-4.25v-12.57c0-.69,.61-1.3,1.3-1.3h1.73c.69,0,1.3,.61,1.3,1.3v12.57h-.09Zm6.33,0h-4.25v-8.32c0-.69,.61-1.3,1.3-1.3h1.73c.69,0,1.3,.61,1.3,1.3v8.32h-.09Zm8.06,0h-5.9v-18.12c0-.95,.78-1.73,1.73-1.73h2.43c.95,0,1.73,.78,1.73,1.73v18.12Z"/>
  <path class="cls-3" d="M451.42,535.14h32.78v2.77h-32.78v-2.77Z"/>
  <path class="cls-6" d="M182.79,786.44c-1.56-3.99-3.47-7.89-5.9-11.45-1.47-2.17-1.56-5.03-.35-7.28l5.38-9.71-12.66-10.75-8.67,6.94c-2.08,1.65-4.86,1.99-7.28,.87-3.9-1.73-8.06-3.12-12.23-3.9-2.6-.52-4.68-2.43-5.38-4.94l-3.03-10.58-16.56,1.39-1.3,11.01c-.26,2.6-2.08,4.86-4.51,5.81-3.99,1.56-7.89,3.47-11.45,5.9-2.17,1.47-5.03,1.56-7.28,.35l-9.71-5.38-10.75,12.66,6.94,8.67c1.65,2.08,1.99,4.86,.87,7.28-1.73,3.9-3.12,8.06-3.9,12.23-.52,2.6-2.43,4.68-4.94,5.38l-10.67,3.03,1.39,16.56,11.01,1.3c2.6,.26,4.86,2.08,5.81,4.51,1.56,3.99,3.47,7.89,5.9,11.45,1.47,2.17,1.56,5.03,.35,7.28l-5.38,9.71,12.66,10.75,8.67-6.94c2.08-1.65,4.86-1.99,7.28-.87,3.9,1.73,8.06,3.12,12.23,3.9,2.6,.52,4.68,2.43,5.38,4.94l3.03,10.67,16.56-1.39,1.3-11.01c.26-2.6,2.08-4.86,4.51-5.81,3.99-1.56,7.89-3.47,11.45-5.9,2.17-1.47,5.03-1.56,7.28-.35l9.71,5.38,10.75-12.66-6.94-8.67c-1.65-2.08-1.99-4.86-.87-7.28,1.73-3.9,3.12-8.06,3.9-12.23,.52-2.6,2.43-4.68,4.94-5.38l10.67-3.03-1.39-16.56-11.01-1.3c-2.6-.35-4.86-2.17-5.81-4.6h0Zm-49.08,62c-23.24,1.91-43.62-15.35-45.61-38.59-1.91-23.24,15.35-43.62,38.59-45.61,23.24-1.91,43.62,15.35,45.61,38.59,1.91,23.24-15.35,43.62-38.59,45.61Z"/>
  <path class="cls-6" d="M102.14,808.72c-1.3-15.52,10.23-29.14,25.67-30.44,15.52-1.3,29.14,10.23,30.44,25.67,1.3,15.52-10.23,29.14-25.67,30.44-15.52,1.3-29.14-10.15-30.44-25.67h0Z"/>
  <path class="cls-10" d="M317.8,672.32c-4.16-3.73-8.67-7.02-13.61-9.71-3.03-1.65-4.77-4.86-4.68-8.24l.43-14.39-20.98-4.86-5.9,13.09c-1.39,3.12-4.42,5.2-7.89,5.38-5.55,.26-11.1,1.21-16.48,2.77-3.3,.95-6.85,0-9.19-2.51l-9.8-10.49-18.3,11.36,5.03,13.53c1.21,3.21,.52,6.85-1.82,9.36-3.73,4.16-7.02,8.67-9.71,13.61-1.65,3.03-4.86,4.77-8.24,4.68l-14.39-.43-4.86,20.98,13.09,5.9c3.12,1.39,5.2,4.42,5.38,7.89,.26,5.55,1.21,11.1,2.69,16.48,.95,3.3,0,6.85-2.51,9.19l-10.49,9.8,11.36,18.3,13.53-5.12c3.21-1.21,6.76-.52,9.36,1.82,4.16,3.73,8.67,7.02,13.61,9.71,3.03,1.65,4.86,4.86,4.68,8.24l-.43,14.39,20.98,4.86,5.9-13.09c1.39-3.12,4.42-5.2,7.89-5.38,5.55-.26,11.1-1.21,16.48-2.69,3.3-.95,6.85,0,9.19,2.51l9.8,10.49,18.3-11.36-5.03-13.53c-1.21-3.21-.52-6.85,1.82-9.36,3.73-4.16,7.02-8.67,9.71-13.61,1.65-3.03,4.86-4.77,8.24-4.68l14.39,.43,4.86-20.98-13.09-5.9c-3.12-1.39-5.2-4.42-5.38-7.89-.26-5.55-1.21-11.1-2.69-16.48-.95-3.3,0-6.85,2.51-9.19l10.49-9.8-11.36-18.3-13.53,5.03c-3.21,1.13-6.76,.43-9.36-1.82Zm-19.94,100.67c-25.67,16.04-59.48,8.15-75.53-17.52-16.04-25.67-8.15-59.48,17.52-75.53,25.67-16.04,59.48-8.15,75.53,17.52,15.96,25.75,8.15,59.48-17.52,75.53Z"/>
  <path class="cls-10" d="M237.85,745.77c-10.67-17.08-5.46-39.63,11.71-50.29,17.17-10.67,39.63-5.46,50.29,11.71,10.67,17.08,5.46,39.63-11.71,50.29-17.08,10.67-39.63,5.46-50.29-11.71Z"/>
  <path class="cls-6" d="M924.53,261.96c-3.38,4.34-6.16,9.02-8.41,14.05-1.39,3.03-4.34,5.12-7.72,5.29l-14.13,.69-3.12,20.9,13.27,4.77c3.12,1.13,5.38,3.99,5.81,7.28,.69,5.46,1.99,10.75,3.99,15.87,1.21,3.12,.52,6.68-1.73,9.19l-9.45,10.41,12.57,17,12.83-5.98c3.03-1.39,6.59-1.04,9.28,1.04,4.34,3.38,9.02,6.16,14.05,8.41,3.03,1.39,5.12,4.34,5.29,7.72l.69,14.13,20.9,3.12,4.77-13.27c1.13-3.12,3.99-5.38,7.28-5.81,5.46-.69,10.75-1.99,15.87-3.99,3.12-1.21,6.68-.52,9.19,1.73l10.41,9.54,17-12.57-5.98-12.83c-1.39-3.03-1.04-6.59,1.04-9.28,3.38-4.34,6.16-9.02,8.41-14.05,1.39-3.03,4.34-5.12,7.72-5.29l14.13-.69,3.12-20.9-13.27-4.77c-3.12-1.13-5.38-3.99-5.81-7.28-.69-5.46-1.99-10.75-3.99-15.87-1.21-3.12-.52-6.68,1.73-9.19l9.54-10.41-12.57-17-12.83,5.98c-3.03,1.39-6.59,1.04-9.28-1.04-4.34-3.38-9.02-6.16-14.05-8.41-3.03-1.39-5.12-4.34-5.29-7.72l-.69-14.13-20.9-3.12-4.77,13.27c-1.13,3.12-3.99,5.38-7.28,5.81-5.46,.69-10.75,1.99-15.87,3.99-3.12,1.21-6.68,.52-9.19-1.73l-10.41-9.54-17,12.57,5.98,12.83c1.3,3.03,.95,6.59-1.13,9.28h0Zm99.98,11.71c17.6,23.85,12.57,57.58-11.27,75.18-23.85,17.6-57.58,12.57-75.18-11.27-17.6-23.85-12.57-57.58,11.27-75.18,23.93-17.6,57.58-12.57,75.18,11.27h0Z"/>
  <path class="cls-6" d="M1002.57,341.17c-15.96,11.79-38.33,8.41-50.12-7.54-11.79-15.96-8.41-38.33,7.54-50.12,15.96-11.79,38.33-8.41,50.12,7.54,11.79,15.87,8.41,38.33-7.54,50.12h0Z"/>
  <path class="cls-10" d="M710.52,198.61c-1.3,7.02-1.73,14.13-1.47,21.24,.17,4.34-1.99,8.5-5.81,10.67l-15.87,9.1,8.76,26.01,18.21-2.34c4.34-.52,8.58,1.39,11.01,4.94,4.08,5.9,8.76,11.27,13.96,16.04,3.21,2.95,4.51,7.46,3.38,11.62l-4.77,17.6,24.54,12.23,11.27-14.48c2.69-3.47,7.02-5.12,11.27-4.34,7.02,1.3,14.13,1.82,21.24,1.47,4.34-.17,8.5,1.99,10.67,5.81l9.1,15.87,26.01-8.76-2.34-18.21c-.52-4.34,1.39-8.58,4.94-11.01,5.9-3.99,11.27-8.76,16.04-13.96,2.95-3.21,7.46-4.51,11.62-3.38l17.69,4.77,12.23-24.63-14.57-11.27c-3.47-2.69-5.12-7.02-4.34-11.27,1.3-7.02,1.82-14.13,1.47-21.24-.17-4.34,2.08-8.5,5.81-10.67l15.87-9.1-8.76-26.01-18.21,2.34c-4.34,.52-8.58-1.39-11.01-4.94-3.99-5.9-8.76-11.27-13.96-16.04-3.21-2.95-4.51-7.46-3.38-11.62l4.77-17.69-24.45-12.23-11.27,14.48c-2.69,3.47-7.02,5.12-11.27,4.34-7.02-1.3-14.13-1.82-21.24-1.47-4.34,.17-8.5-1.99-10.67-5.81l-9.1-15.87-26.01,8.76,2.34,18.21c.52,4.34-1.39,8.58-4.94,11.01-5.9,3.99-11.27,8.76-16.04,13.96-2.95,3.21-7.46,4.51-11.62,3.38l-17.69-4.77-12.23,24.63,14.48,11.27c3.56,2.69,5.2,7.02,4.34,11.36Zm122.53-45.7c34.51,17.17,48.56,59.05,31.48,93.56-17.17,34.51-59.05,48.56-93.56,31.48-34.51-17.17-48.56-59.05-31.48-93.56,17.17-34.51,59.05-48.56,93.56-31.48h0Z"/>
  <path class="cls-10" d="M843.62,236.16c-11.45,22.98-39.37,32.43-62.35,20.98-22.98-11.45-32.43-39.37-20.98-62.35,11.45-22.98,39.37-32.43,62.35-20.98,23.07,11.36,32.43,39.28,20.98,62.35Z"/>
</svg>